<svg id="Layer_1" data-name="Layer 1" xmlns="http://www.w3.org/2000/svg" viewBox="0 0 2000 2000"><defs><style>.cls-1{fill:#c31718;}</style></defs><path class="cls-1" d="M1657.13,520.05a80.87,80.87,0,0,1-17.08,12.78c-12.34,7.2-25.65,12.55-39.07,17.35-27,9.39-54.77,16.17-82.69,22-56,11.44-112.71,18.41-169.5,24q-62.62,5.67-125.41,8.42c-52.17-85.67-159-125.78-257.06-90.46a215.58,215.58,0,0,0-57.46,31.2c-7.59-7.64-15.13-15.32-22.74-22.93l-1.67-1.65a216.38,216.38,0,0,0,50.11-124q36.11-1.2,72.22-1.79c114-1.5,228.29,1.17,342,11.52,56.79,5.56,113.54,12.53,169.5,24,27.93,5.85,55.73,12.62,82.69,22,13.42,4.8,26.73,10.15,39.07,17.35a80.53,80.53,0,0,1,17.08,12.78c5,5,9.07,11.49,9.15,18.74,0-7.25-4.1-13.81-9.06-18.83a81,81,0,0,0-17-12.91c-12.32-7.29-25.61-12.73-39-17.62-26.94-9.57-54.73-16.52-82.65-22.54-55.91-11.91-112.53-20.27-169.32-26.72-113.61-13.08-228-19.57-342.4-21.29q-35.84-.47-71.7-.31a215,215,0,0,0-12.78-72.14C882,197,758.46,138.88,646.47,179.23a214.77,214.77,0,0,0-75.28,46.4c-39-34.31-78.61-68-119.34-100.63,32.8,41,66.73,80.81,101.26,120.05a215.7,215.7,0,0,0-46.66,169.38c-4.66.89-9.32,1.76-14,2.71C464.17,423.07,436,429.93,408,439.65c-13.94,5-27.82,10.52-41.42,18.45-6.78,4-13.56,8.53-19.91,15a49,49,0,0,0-8.7,11.7,34,34,0,0,0,0,33,48.79,48.79,0,0,0,8.71,11.7c6.35,6.48,13.13,11,19.91,15C380.21,552.46,394.09,558,408,563c27.91,9.72,56.13,16.58,84.44,22.51,56.67,11.63,113.78,18.61,170.9,24.21,61.08,5.57,122.25,8.87,183.43,10.55A214.84,214.84,0,0,0,836.61,790C877,901.94,1000.45,960,1112.44,919.67A214.82,214.82,0,0,0,1185.93,875q42.08,36.48,85.42,71.68-64.42,62.6-128.35,125.7-47.12,46.27-93.81,93a73.41,73.41,0,0,0-84.78,0l-93.62-93.17C822,1024.4,773.54,976.31,724.45,928.85L650.9,857.59,577,786.72l-74.54-70.28L465.14,681.3l-10.51-9.71a35.45,35.45,0,1,0-2,2.08l9.69,10.49,35.14,37.27L567.7,796l70.87,73.95,71.26,73.55c47.46,49.09,95.55,97.55,143.31,146.34l93.16,93.61a73.84,73.84,0,0,0,50,115.53l7.94,228.37a73.79,73.79,0,0,0-68.2,94.84L701.15,1727.39a36.93,36.93,0,1,0-23.42,50.54,104.25,104.25,0,0,0,10.52,11.88c11.7,11.33,25.5,20,39.54,27.77,28.42,15.12,58.8,25.81,89.63,34,15.41,4.24,31,7.67,46.71,10.51s31.45,5.29,47.27,7.25a886.61,886.61,0,0,0,95.38,5.62c31.85-.35,63.72-1.86,95.38-5.66,22.31-2.81,44.57-6.37,66.58-11.14a36.91,36.91,0,0,0,65.52-18.34,372,372,0,0,0,51.5-22.31c14-7.8,27.84-16.42,39.54-27.75a104.82,104.82,0,0,0,10.51-11.86,36.95,36.95,0,1,0-23.41-50.55l-234.84-105.22a73.74,73.74,0,0,0-68.21-94.83l7.93-228.37a73.73,73.73,0,0,0,50-115.56q46.59-46.8,93-93.83c47.83-48.71,95.82-97.28,143.27-146.36q71.51-73.34,142.15-147.49c38.37-40.78,77.1-81.21,115.3-122.15a35.73,35.73,0,1,0-1.93-1.9c-40.94,38.2-81.36,76.92-122.13,115.28q-74,70.8-147.49,142.15c-5.3,5.12-10.53,10.29-15.81,15.42q-35.26-43.59-72-85.74a215.4,215.4,0,0,0,25.76-247.29q61-4.62,121.81-11.56c56.8-6.45,113.42-14.8,169.32-26.73,27.92-6,55.71-13,82.65-22.55,13.42-4.88,26.71-10.32,39-17.61a81,81,0,0,0,17-12.91c5-5,9-11.58,9.06-18.84C1666.2,508.56,1662.11,515.07,1657.13,520.05ZM497.87,559.91C470.33,554,443,547.1,417,537.86c-12.9-4.69-25.61-10-36.66-16.51a68.12,68.12,0,0,1-14.21-10.68c-3.83-3.83-5.23-7.37-5.24-9.37s1.4-5.55,5.23-9.38c3.6-3.8,8.73-7.43,14.21-10.69,11-6.56,23.76-11.81,36.66-16.5,26-9.25,53.37-16.12,80.91-22.05,4.68-1,9.42-1.84,14.12-2.8,1.42,5.08,3,10.15,4.78,15.18a215,215,0,0,0,126.9,128.62C594.64,577.65,545.84,570.11,497.87,559.91Zm162.83-83.6a104.28,104.28,0,0,1-41-38.77,101.69,101.69,0,0,1-7.21-14.62,104.57,104.57,0,0,1-6.35-23.73A118.91,118.91,0,0,1,604.86,382q0-30.84,14.83-55.54c.86-1.45,1.92-2.72,2.85-4.11a102.62,102.62,0,0,1,26.12-27.18,113.88,113.88,0,0,1,12-7.49q26.2-14.07,58.83-14.07t58.68,14.07a105.83,105.83,0,0,1,41,38.78q15,24.69,15,55.54c0,.25,0,.5,0,.75a115.69,115.69,0,0,1-1.64,18.74,101.52,101.52,0,0,1-13.31,36,106.71,106.71,0,0,1-41,38.77c-2.34,1.27-4.72,2.43-7.13,3.52q-23.33,10.55-51.55,10.55Q686.91,490.38,660.7,476.31ZM856.84,602.4q-52.49-2.88-104.79-7.33a215.69,215.69,0,0,0,94.26-38.77c1,1,2,2,2.94,3,7.43,7.44,14.94,14.81,22.41,22.22A215.56,215.56,0,0,0,856.84,602.4Zm278.65,14.82V821.68H1087V735.75h-95.2v85.93h-48.5V612.11h48.5v82.63H1087V612.11h48.51Zm-64,1019.4,240.11,92.58a36.86,36.86,0,0,0,18.94,46.81,102.11,102.11,0,0,1-9.94,8.3c-12.31,9-26.15,15.93-40.38,21.74a396.67,396.67,0,0,1-48.07,16.15,37,37,0,0,0-56.67-16.63l-114.84-153.93A73.5,73.5,0,0,0,1071.54,1636.62Zm-39.71,34.08a74.37,74.37,0,0,0,13.59-6.52l127.65,143.42a37,37,0,0,0-12.33,29.65c-20.27,3.28-40.65,6-61.14,7.6q-46.26,4.29-92.82,4.09c-31,.11-62-1.21-92.81-4.12-30.89-2.47-61.53-7.18-91.9-13-30.23-6.29-60.34-14-88.76-25.79-14.23-5.8-28.07-12.69-40.38-21.72A103.92,103.92,0,0,1,683,1776a36.93,36.93,0,0,0,19.25-46c-.1-.26-.22-.5-.32-.76L942,1636.61A73.85,73.85,0,0,0,1031.83,1670.7Z"/><path class="cls-1" d="M777.12,415.56a64.71,64.71,0,0,0,4.37-10.48A73.42,73.42,0,0,0,785,384.72c0-.91.15-1.78.15-2.71q0-19.47-8.53-34.74a61.33,61.33,0,0,0-23.51-23.8,70.17,70.17,0,0,0-67.06,0c-1.33.76-2.51,1.66-3.76,2.49a61.14,61.14,0,0,0-19.74,21.31,64.31,64.31,0,0,0-5.29,12.82A74.48,74.48,0,0,0,654,382a79.32,79.32,0,0,0,.95,11.81,66.6,66.6,0,0,0,7.49,22.74,1.51,1.51,0,0,1,.09.18,61.23,61.23,0,0,0,23.5,23.8,66.54,66.54,0,0,0,33.53,8.53,70.71,70.71,0,0,0,19.22-2.64,63.63,63.63,0,0,0,14.31-5.89,61.46,61.46,0,0,0,23.51-23.8C776.78,416.36,776.92,415.94,777.12,415.56Z"/></svg>